<?xml version="1.0" encoding="UTF-8"?>
<!DOCTYPE svg PUBLIC "-//W3C//DTD SVG 1.1//EN" "http://www.w3.org/Graphics/SVG/1.1/DTD/svg11.dtd">
<!-- Creator: CorelDRAW -->
<svg xmlns="http://www.w3.org/2000/svg" xml:space="preserve" width="202px" height="70px" style="shape-rendering:geometricPrecision; text-rendering:geometricPrecision; image-rendering:optimizeQuality; fill-rule:evenodd; clip-rule:evenodd"
viewBox="0 0 1191 411.855"
 xmlns:xlink="http://www.w3.org/1999/xlink">
 <defs>
  <style type="text/css">
   <![CDATA[
    .fil0 {fill:none}
    .fil1 {fill:#0F6478;fill-rule:nonzero}
    .fil2 {fill:#148296;fill-rule:nonzero}
   ]]>
  </style>
 </defs>
 <g id="Layer_x0020_1">
  <metadata id="CorelCorpID_0Corel-Layer"/>
  <rect class="fil0" width="1191" height="411.855"/>
  <path class="fil1" d="M114.725 244.795c0,-1.70536 -1.3941,-3.10323 -3.10323,-3.10323l0 0c-1.70725,0 -3.10511,1.39786 -3.10511,3.10323l0 71.8643c0,1.70536 1.39975,3.10323 3.10511,3.10323l0 0 3.10323 0c3.66537,-4.58787 9.5247,-6.88178 17.5836,-6.88178 6.10456,0 15.7519,1.32996 28.9382,3.98419 13.1863,2.65612 23.8089,3.98233 31.8679,3.98233 -27.3498,-2.17132 -53.4791,-27.5234 -78.3898,-76.0525l7.89588e-005 0.000225597z"/>
  <path class="fil1" d="M202.271 28.2165c-42.3489,-1.48273 -86.8128,32.0811 -86.8128,76.5993 0,41.9473 36.9669,65.39 70.8004,80.5328 35.2825,15.7934 92.2022,26.7178 92.2022,74.8376 0,10.683 -3.17298,21.549 -9.52279,32.7168 -9.2795,16.1763 -26.4952,25.5332 -51.6475,27.9441 56.6635,4.87648 111.205,-43.3299 91.6778,-102.001 -11.8224,-35.5124 -65.0883,-52.2624 -97.9807,-65.3544 -29.4928,-11.7375 -58.1989,-26.5688 -59.2666,-61.4721 -1.16016,-31.5189 19.3078,-57.9593 50.5494,-63.8035l0.000575271 3.38395e-005z"/>
  <path class="fil1" d="M381.382 34.1249c12.8826,2.81081 19.3248,12.1827 19.3248,28.1101l0.175458 112.442 -0.175458 112.442c0,15.9292 -6.44226,25.2992 -19.3248,28.1101 -1.63746,0 -2.97873,1.33938 -2.97873,2.97681l0 0.00188373c0,1.63746 1.34126,2.97685 2.97873,2.97685l79.763 0c1.63746,0 2.97685,-1.33938 2.97685,-2.97685l0 -0.00188373c0,-1.63742 -1.34126,-2.97681 -2.97685,-2.97681 -12.8845,-2.81084 -19.3267,-12.1808 -19.3267,-28.1101l-0.175458 -112.442 0.175458 -112.442c0,-15.9273 6.44226,-25.2993 19.3267,-28.1101 1.63746,0 2.97685,-1.33749 2.97685,-2.97685l0 -0.00188373c0,-1.63742 -1.34126,-2.97681 -2.97685,-2.97681l-79.763 0c-1.63746,0 -2.97873,1.34126 -2.97873,2.97681l0 0.00188373c0,1.63746 1.34126,2.97685 2.97873,2.97685z"/>
  <path class="fil1" d="M1057.22 321.185l-193.611 -227.208 0 191.388c0,7.52696 0.818712,14.056 4.56519,19.6776 3.74649,5.61972 9.25306,9.01725 16.5159,10.1888 1.63369,0 2.97685,1.33938 2.97685,2.97681l0 0.00188373c0,1.63557 -1.34126,2.97685 -2.97685,2.97685l-56.9238 0c-1.63557,0 -2.97685,-1.34126 -2.97685,-2.97685l0 -0.00188373c0,-1.63554 1.34126,-2.97681 2.97685,-2.97681 12.8826,-2.10718 19.3248,-12.0639 19.3248,-29.8664l0 -221.374c0,-4.68592 -0.818746,-9.48885 -2.45805,-14.4068 -3.27865,-9.83788 -9.02105,-14.9916 -17.2196,-15.4614 -1.63554,0 -2.97681,-1.34126 -2.97681,-2.97685l0 0c0,-1.63742 1.34126,-2.9787 2.97681,-2.9787l45.0505 0c56.0766,63.3452 112.161,132.637 168.24,195.978l0 -160.507c0,-15.6934 -7.02702,-25.5313 -21.083,-29.5154l-0.175458 0c-1.63554,0 -2.97685,-1.34126 -2.97685,-2.97685l0 0c0,-1.63742 1.34131,-2.9787 2.97685,-2.9787l56.9238 0c1.63369,0 2.97873,1.34126 2.97873,2.9787l0 0c0,1.63746 -1.34126,2.97685 -2.97873,2.97685l-0.175413 0c-12.6506,2.34297 -18.974,12.1846 -18.974,29.5154l0 257.546 -0.000191757 0.000270716z"/>
  <path class="fil1" d="M296.777 99.202c0,1.70725 1.39598,3.10511 3.10511,3.10511l0 0c1.70913,0 3.10319,-1.39786 3.10319,-3.10511l0 -67.5182c0,-1.70536 -1.39786,-3.10511 -3.10319,-3.10511l0 0 -3.10511 0 -71.7949 0c43.4678,9.17763 67.3993,32.7168 71.7949,70.6231l0 0.000180477z"/>
  <path class="fil2" d="M523.989 68.9268l3.35905 -10.3234 20.461 0 20.461 0 3.35989 10.3234 -23.8209 0 -23.8201 0zm63.742 -34.8014c1.63794,0 2.97754,-1.33876 2.97754,-2.9775l0 -0.000834707c0,-1.63879 -1.34126,-2.9775 -2.97754,-2.9775l-79.7623 0c-1.63624,0 -2.9775,1.34043 -2.9775,2.9775l0 0.000834707c0,1.63708 1.33959,2.9775 2.9775,2.9775 10.4848,2.28756 16.7028,8.91908 18.6559,19.8946l21.1846 0 21.267 0c1.95308,-10.9755 8.17032,-17.607 18.655,-19.8946l-0.000146638 0zm-63.742 190.825l3.35905 10.3242 20.461 0 20.461 0 3.35989 -10.3242 -23.8209 0 -23.8201 0zm256.6 -190.825c-12.8832,2.81112 -19.3265,12.1815 -19.3265,28.1103l-0.174826 118.398 0.0386672 24.9975 0 18.339c0,62.1209 -47.452,97.2151 -103.735,97.2151 35.6226,-1.63289 59.5123,-31.7996 62.5647,-66.7481 1.32951,-15.2548 0.3328,-33.2711 0.3328,-48.8059l0.0386672 -24.9975 -0.175627 -118.398c0,-15.9288 -6.44246,-25.2992 -19.3257,-28.1103 -1.63794,0 -2.9775,-1.34043 -2.9775,-2.9775l0 -0.000834707c0,-1.63708 1.34126,-2.9775 2.9775,-2.9775l79.7623 0c1.63624,0 2.9775,1.33872 2.9775,2.9775l0 0.000834707c0,1.63874 -1.33959,2.9775 -2.9775,2.9775l4.51193e-005 -0.000101518zm-68.7819 237.586c-9.0485,28.6792 -35.8587,49.473 -67.5282,49.473 -31.6693,0 -58.4795,-20.7939 -67.5289,-49.4741 13.7833,23.2427 38.8683,38.7901 67.5289,38.7901 28.6607,0 53.7438,-15.5464 67.5282,-38.7891zm-183.275 -31.8559c7.39627,52.1825 51.3447,81.3288 102.634,81.3288 -35.6226,-1.63289 -59.5123,-31.7996 -62.5647,-66.7481 -0.405905,-4.65322 -0.594165,-9.56282 -0.661404,-14.5808l-39.4078 0 0.000191757 6.7679e-005zm10.4318 -166.347l6.07436 0 0 146.86 -6.07436 0 0 -146.86zm-11.6159 0l6.07436 0 0 146.86 -6.07436 0 0 -146.86zm34.8484 0l6.07352 0 0 146.86 -6.07352 0 0 -146.86zm-11.6167 0l6.07436 0 0 146.86 -6.07436 0 0 -146.86z"/>
  <path class="fil2" d="M111.286 370.092l0 -18.9425c0,-1.46968 -0.278961,-2.44947 -0.836895,-2.93935 -0.557934,-0.489894 -1.58536,-0.734847 -3.08225,-0.734847l0 -0.734836 8.25334 0 9.8523 21.3035 0.183715 0.00681302 9.63456 -21.3104 8.16489 0 0 0.734836c-1.46968,0 -2.49029,0.244953 -3.06184,0.734847 -0.571538,0.489883 -0.857312,1.46967 -0.857312,2.93935l0 18.9425c0,1.46968 0.278973,2.44946 0.836907,2.93935 0.557934,0.489894 1.58535,0.734847 3.08225,0.734847l0 0.734836 -12.084 0 0 -0.734836c1.46967,0 2.49028,-0.244953 3.06183,-0.734847 0.571538,-0.489894 0.857312,-1.46967 0.857312,-2.93935l0 -18.3302 -0.163298 0 -10.3286 22.7392 -0.857323 0 -10.4919 -22.5759 -0.285774 0 0 18.1669c0,1.46968 0.278973,2.44946 0.836907,2.93935 0.557934,0.489894 1.58535,0.734847 3.08225,0.734847l0 0.734836 -9.71622 0 0 -0.734836c1.46968,0 2.49029,-0.244953 3.06183,-0.734847 0.571538,-0.489894 0.857312,-1.46967 0.857312,-2.93935zm43.7352 -23.3516l21.3104 0 0.326596 6.61355 -0.734847 0c-0.353814,-1.79628 -0.925352,-3.08905 -1.71462,-3.87832 -0.898134,-0.898134 -2.23174,-1.34721 -4.0008,-1.34721l-7.02181 0 0 10.5327 6.0012 0c1.25195,0 2.23174,-0.258556 2.93937,-0.775669 0.816479,-0.598756 1.22473,-1.53772 1.22473,-2.81689l0.734836 0 0 9.38962 -0.734836 0c0,-1.55133 -0.37422,-2.674 -1.12267,-3.36801 -0.74845,-0.694014 -1.73504,-1.04103 -2.95977,-1.04103l-6.08285 0 0 11.3492c0,0.489883 0.149695,0.898134 0.449072,1.22473 0.299378,0.326596 0.694014,0.489894 1.18391,0.489894l5.79708 0c1.82349,0 3.40203,-0.625974 4.73563,-1.87792 1.17029,-1.11587 2.05482,-2.62637 2.65359,-4.53151l0.979777 0 -2.49028 7.79746 -21.4737 0 0 -0.734836c1.46968,0 2.49029,-0.244953 3.06183,-0.734847 0.571538,-0.489894 0.857312,-1.46967 0.857312,-2.93935l0 -18.9425c0,-1.46968 -0.278961,-2.44947 -0.836895,-2.93935 -0.557934,-0.489894 -1.58536,-0.734847 -3.08225,-0.734847l0 -0.734836zm39.2854 23.3516l0 -18.9425c0,-1.46968 -0.278961,-2.44947 -0.836895,-2.93935 -0.557934,-0.489894 -1.58536,-0.734847 -3.08225,-0.734847l0 -0.734836 12.329 0c2.63999,0 4.87853,0.265358 6.71563,0.796074 1.8371,0.530716 3.38162,1.38123 4.63357,2.55153 2.85771,2.66719 4.28656,6.09644 4.28656,10.2878 0,4.08244 -1.25195,7.41644 -3.75584,10.002 -2.66719,2.74885 -6.28697,4.12327 -10.8593,4.12327l-13.3496 0 0 -0.734836c1.46968,0 2.49029,-0.244953 3.06183,-0.734847 0.571538,-0.489894 0.857312,-1.46967 0.857312,-2.93935zm4.24574 -21.2695l0 23.6374c0.68041,0.244941 1.37442,0.415041 2.08205,0.510299 0.707617,0.0952581 1.5105,0.142893 2.40864,0.142893 2.93937,0 5.39563,-1.15669 7.36881,-3.47008 1.97319,-2.31338 2.95978,-5.37522 2.95978,-9.1855 0,-3.45647 -0.972987,-6.37541 -2.91895,-8.75683 -1.94597,-2.38143 -4.41585,-3.57214 -7.40964,-3.57214 -0.95257,0 -1.71462,0.0544364 -2.28616,0.163298 -0.571549,0.108862 -1.30638,0.285774 -2.20453,0.530716zm35.8153 21.2695l0 -18.9425c0,-1.46968 -0.278973,-2.44947 -0.836907,-2.93935 -0.557934,-0.489894 -1.58535,-0.734847 -3.08224,-0.734847l0 -0.734836 12.084 0 0 0.734836c-1.46967,0 -2.49028,0.244953 -3.06183,0.734847 -0.571538,0.489883 -0.857312,1.46967 -0.857312,2.93935l0 18.9425c0,1.46968 0.278973,2.44946 0.836907,2.93935 0.557934,0.489894 1.58535,0.734847 3.08224,0.734847l0 0.734836 -12.084 0 0 -0.734836c1.46967,0 2.49028,-0.244953 3.06183,-0.734847 0.571538,-0.489894 0.857312,-1.46967 0.857312,-2.93935zm44.1843 -24.0048l0.694014 9.43044 -0.979788 0c-0.27216,-2.20452 -1.22473,-4.09605 -2.85771,-5.6746 -1.63297,-1.57854 -3.47007,-2.36782 -5.51129,-2.36782 -3.04823,0 -5.55212,1.29278 -7.5117,3.87832 -0.898134,1.19752 -1.58535,2.63317 -2.06164,4.30698 -0.476279,1.6738 -0.71443,3.4905 -0.71443,5.45006 0,3.81028 1.04783,6.85851 3.14348,9.14468 2.014,2.20452 4.59955,3.30677 7.75664,3.30677 1.6602,0 3.29318,-0.585141 4.89893,-1.75545 1.41525,-1.03422 2.69441,-2.43586 3.8375,-4.20492l0.694014 0.40824c-1.14308,2.04123 -2.59915,3.70142 -4.36821,4.98059 -2.014,1.44246 -4.1777,2.1637 -6.49108,2.1637 -4.13688,0 -7.57974,-1.37442 -10.3286,-4.12327 -2.74884,-2.74884 -4.12326,-6.11006 -4.12326,-10.0836 0,-4.08244 1.44246,-7.57973 4.32739,-10.4919 2.88492,-2.91215 6.30056,-4.36821 10.2469,-4.36821 1.60576,0 2.96658,0.190516 4.08245,0.571538 1.007,0.435469 2.02762,0.870927 3.06183,1.30638 0.299378,0 0.598756,-0.183703 0.898134,-0.551132 0.299378,-0.367418 0.503509,-0.809677 0.612371,-1.32679l0.694014 0zm26.0991 0l0.979788 0 10.1653 24.0456c0.625974,1.41525 1.18391,2.3406 1.6738,2.77607 0.653192,0.571538 1.63297,0.857312 2.93935,0.857312l0 0.734836 -11.4308 0 0 -0.734836c2.01401,0 3.02101,-0.598767 3.02101,-1.79628 0,-0.489894 -0.1701,-1.09545 -0.503498,-1.8303l-2.06844 -4.90573 -10.8185 0 -2.14329 4.89213c-0.312981,0.734836 -0.469478,1.34721 -0.469478,1.8371 0,0.578339 0.244941,1.02061 0.734836,1.33359 0.489894,0.312993 1.32,0.469489 2.49029,0.469489l0 0.734836 -8.85891 0 0 -0.734836c0.95257,0 1.74184,-0.326596 2.36783,-0.979788 0.517101,-0.544331 1.04782,-1.42886 1.59215,-2.65359l10.3286 -24.0456zm-0.612359 6.40263l-4.80367 11.1927 9.40322 0 -4.59955 -11.1927zm31.2838 17.6021l0 -18.9425c0,-1.46968 -0.278961,-2.44947 -0.836895,-2.93935 -0.557934,-0.489894 -1.58536,-0.734847 -3.08225,-0.734847l0 -0.734836 12.084 0 0 0.734836c-1.46968,0 -2.49029,0.244953 -3.06183,0.734847 -0.571549,0.489883 -0.857323,1.46967 -0.857323,2.93935l0 19.8815c0,0.571549 0.149695,1.06144 0.449072,1.46968 0.299378,0.408251 0.68041,0.612371 1.14309,0.612371l5.1847 0c2.20452,0 4.028,-0.612371 5.47047,-1.8371 1.27917,-1.08865 2.23174,-2.59915 2.85771,-4.53151l0.81649 0.20412 -2.40864 7.55252 -21.6778 0 0 -0.734836c1.46968,0 2.49029,-0.244953 3.06183,-0.734847 0.571538,-0.489894 0.857312,-1.46967 0.857312,-2.93935zm51.7899 -23.3516l21.3104 0 0.326596 6.61355 -0.734847 0c-0.353814,-1.79628 -0.925352,-3.08905 -1.71462,-3.87832 -0.898134,-0.898134 -2.23174,-1.34721 -4.0008,-1.34721l-7.02181 0 0 10.5327 6.0012 0c1.25195,0 2.23174,-0.258556 2.93937,-0.775669 0.816479,-0.598756 1.22473,-1.53772 1.22473,-2.81689l0.734836 0 0 9.38962 -0.734836 0c0,-1.55133 -0.37422,-2.674 -1.12267,-3.36801 -0.74845,-0.694014 -1.73504,-1.04103 -2.95977,-1.04103l-6.08285 0 0 11.3492c0,0.489883 0.149695,0.898134 0.449072,1.22473 0.299378,0.326596 0.694014,0.489894 1.18391,0.489894l5.79708 0c1.82349,0 3.40203,-0.625974 4.73563,-1.87792 1.17029,-1.11587 2.05482,-2.62637 2.65359,-4.53151l0.979777 0 -2.49028 7.79746 -21.4737 0 0 -0.734836c1.46968,0 2.49029,-0.244953 3.06183,-0.734847 0.571538,-0.489894 0.857312,-1.46967 0.857312,-2.93935l0 -18.9425c0,-1.46968 -0.278961,-2.44947 -0.836895,-2.93935 -0.557934,-0.489894 -1.58536,-0.734847 -3.08225,-0.734847l0 -0.734836zm63.2085 35.7214l0 0.734847c-3.45648,0 -6.96738,-0.966185 -10.5327,-2.89854 -3.04823,-1.66019 -5.38882,-3.56533 -7.02181,-5.71542 -2.80327,-0.762054 -5.13707,-2.53111 -7.00139,-5.30717 -1.86432,-2.77607 -2.79647,-5.71542 -2.79647,-8.81808 0,-4.00079 1.31319,-7.39602 3.93956,-10.1857 2.62637,-2.78967 5.89912,-4.1845 9.81828,-4.1845 3.86471,0 7.12387,1.39483 9.77744,4.1845 2.65359,2.78967 3.98038,6.18491 3.98038,10.1857 0,3.26596 -0.993392,6.29377 -2.98018,9.08344 -1.98679,2.78967 -4.47709,4.52471 -7.47088,5.20511 0.598767,1.95958 1.85072,3.70142 3.75586,5.22554 2.06844,1.66019 4.24574,2.49028 6.53191,2.49028zm-13.5945 -8.6956c2.83049,-0.353814 5.02821,-1.69422 6.59314,-4.02121 1.56494,-2.32699 2.34741,-5.42284 2.34741,-9.28756 0,-3.91914 -0.762054,-7.03541 -2.28617,-9.34879 -1.60576,-2.42225 -3.82388,-3.63338 -6.65438,-3.63338 -2.85771,0 -5.06223,1.18391 -6.61357,3.55172 -1.55133,2.36782 -2.32699,5.5113 -2.32699,9.43044 0,3.97358 0.74845,7.14428 2.24535,9.5121 1.60576,2.53111 3.8375,3.79668 6.69521,3.79668zm28.9159 -9.10386l0 -13.5129c0,-1.46968 -0.278961,-2.44947 -0.836895,-2.93935 -0.557934,-0.489894 -1.58535,-0.734847 -3.08225,-0.734847l0 -0.734836 12.084 0 0 0.734836c-1.46968,0 -2.49029,0.244953 -3.06183,0.734847 -0.571549,0.489883 -0.857312,1.46967 -0.857312,2.93935l0 13.5945c0,2.42225 0.721232,4.46347 2.1637,6.12366 1.44245,1.6602 3.33399,2.49029 5.67459,2.49029 2.36782,0 4.26615,-0.823292 5.69502,-2.46988 1.42885,-1.64658 2.14328,-3.69461 2.14328,-6.14408l0 -13.5945c0,-1.46968 -0.278973,-2.44947 -0.836907,-2.93935 -0.557923,-0.489894 -1.58535,-0.734847 -3.08224,-0.734847l0 -0.734836 9.71621 0 0 0.734836c-1.46967,0 -2.49028,0.244953 -3.06183,0.734847 -0.571538,0.489883 -0.857312,1.46967 -0.857312,2.93935l0 13.5945c0,3.07544 -0.857312,5.5249 -2.57194,7.3484 -1.90514,2.04122 -4.73563,3.06183 -8.49149,3.06183 -3.37481,0 -6.04202,-1.02061 -8.00158,-3.06183 -1.8235,-1.90514 -2.73525,-4.38183 -2.73525,-7.43006zm40.7959 5.42966l0 -18.9425c0,-1.46968 -0.278973,-2.44947 -0.836907,-2.93935 -0.557934,-0.489894 -1.58535,-0.734847 -3.08224,-0.734847l0 -0.734836 12.084 0 0 0.734836c-1.46967,0 -2.49028,0.244953 -3.06183,0.734847 -0.571538,0.489883 -0.857312,1.46967 -0.857312,2.93935l0 18.9425c0,1.46968 0.278973,2.44946 0.836907,2.93935 0.557934,0.489894 1.58535,0.734847 3.08224,0.734847l0 0.734836 -12.084 0 0 -0.734836c1.46967,0 2.49028,-0.244953 3.06183,-0.734847 0.571538,-0.489894 0.857312,-1.46967 0.857312,-2.93935zm23.6904 0l0 -18.9425c0,-1.46968 -0.278961,-2.44947 -0.836895,-2.93935 -0.557934,-0.489894 -1.58536,-0.734847 -3.08225,-0.734847l0 -0.734836 11.9207 0c2.72163,0 4.98057,0.700816 6.77685,2.10246 1.79628,1.40164 2.69441,3.3408 2.69441,5.81748 0,2.39503 -0.857312,4.27296 -2.57194,5.63377 -1.55133,1.22474 -3.45647,1.8371 -5.71542,1.8371 -1.00701,0 -1.92556,-0.0408217 -2.75565,-0.122465 -0.830094,-0.0816547 -1.55814,-0.204131 -2.18411,-0.367429l0 8.45067c0,1.46968 0.278973,2.44946 0.836907,2.93935 0.557934,0.489894 1.58535,0.734847 3.08225,0.734847l0 0.734836 -12.084 0 0 -0.734836c1.46968,0 2.49029,-0.244953 3.06183,-0.734847 0.571538,-0.489894 0.857312,-1.46967 0.857312,-2.93935zm4.24574 -21.392l0 11.39c0.762065,0.244953 1.38123,0.408251 1.85752,0.489894 0.476279,0.0816547 0.932154,0.122476 1.36762,0.122476 1.74184,0 3.08224,-0.537518 4.0212,-1.61256 0.938967,-1.07505 1.40844,-2.45627 1.40844,-4.14368 0,-1.87793 -0.544331,-3.45648 -1.63298,-4.73564 -1.08865,-1.27915 -2.42225,-1.91874 -4.0008,-1.91874 -0.598756,0 -1.10225,0.0204165 -1.5105,0.0612382 -0.40824,0.0408217 -0.911737,0.156496 -1.5105,0.347001zm29.1201 21.392l0 -18.9425c0,-1.46968 -0.278961,-2.44947 -0.836895,-2.93935 -0.557934,-0.489894 -1.58536,-0.734847 -3.08225,-0.734847l0 -0.734836 8.25334 0 9.8523 21.3035 0.183715 0.00681302 9.63456 -21.3104 8.16489 0 0 0.734836c-1.46968,0 -2.49029,0.244953 -3.06184,0.734847 -0.571538,0.489883 -0.857312,1.46967 -0.857312,2.93935l0 18.9425c0,1.46968 0.278973,2.44946 0.836907,2.93935 0.557934,0.489894 1.58535,0.734847 3.08225,0.734847l0 0.734836 -12.084 0 0 -0.734836c1.46967,0 2.49028,-0.244953 3.06183,-0.734847 0.571538,-0.489894 0.857312,-1.46967 0.857312,-2.93935l0 -18.3302 -0.163298 0 -10.3286 22.7392 -0.857323 0 -10.4919 -22.5759 -0.285774 0 0 18.1669c0,1.46968 0.278973,2.44946 0.836907,2.93935 0.557934,0.489894 1.58535,0.734847 3.08225,0.734847l0 0.734836 -9.71622 0 0 -0.734836c1.46968,0 2.49029,-0.244953 3.06183,-0.734847 0.571538,-0.489894 0.857312,-1.46967 0.857312,-2.93935zm43.7352 -23.3516l21.3104 0 0.326596 6.61355 -0.734847 0c-0.353814,-1.79628 -0.925352,-3.08905 -1.71462,-3.87832 -0.898134,-0.898134 -2.23174,-1.34721 -4.0008,-1.34721l-7.02181 0 0 10.5327 6.0012 0c1.25195,0 2.23174,-0.258556 2.93937,-0.775669 0.816479,-0.598756 1.22473,-1.53772 1.22473,-2.81689l0.734836 0 0 9.38962 -0.734836 0c0,-1.55133 -0.37422,-2.674 -1.12267,-3.36801 -0.74845,-0.694014 -1.73504,-1.04103 -2.95977,-1.04103l-6.08285 0 0 11.3492c0,0.489883 0.149695,0.898134 0.449072,1.22473 0.299378,0.326596 0.694014,0.489894 1.18391,0.489894l5.79708 0c1.82349,0 3.40203,-0.625974 4.73563,-1.87792 1.17029,-1.11587 2.05482,-2.62637 2.65359,-4.53151l0.979777 0 -2.49028 7.79746 -21.4737 0 0 -0.734836c1.46968,0 2.49029,-0.244953 3.06183,-0.734847 0.571538,-0.489894 0.857312,-1.46967 0.857312,-2.93935l0 -18.9425c0,-1.46968 -0.278961,-2.44947 -0.836895,-2.93935 -0.557934,-0.489894 -1.58536,-0.734847 -3.08225,-0.734847l0 -0.734836zm39.1629 23.3516l0 -18.6976c0,-1.14309 -0.449061,-2.08205 -1.34721,-2.81689 -0.898134,-0.734847 -1.98678,-1.10226 -3.26595,-1.10226l0 -0.734836 6.98098 0 16.5271 20.2965 0.1701 -0.00680174 0 -15.8807c0,-1.46968 -0.278973,-2.44947 -0.836907,-2.93935 -0.557934,-0.489894 -1.58535,-0.734847 -3.08224,-0.734847l0 -0.734836 9.71621 0 0 0.734836c-1.46967,0 -2.49028,0.244953 -3.06183,0.734847 -0.571538,0.489883 -0.857312,1.46967 -0.857312,2.93935l0 24.0048 -0.979788 0 -17.9219 -22.5759 -0.163298 0 0 17.5137c0,1.46968 0.278961,2.44946 0.836895,2.93935 0.557934,0.489894 1.58535,0.734847 3.08225,0.734847l0 0.734836 -9.71622 0 0 -0.734836c1.46968,0 2.49029,-0.244953 3.06183,-0.734847 0.571549,-0.489894 0.857312,-1.46967 0.857312,-2.93935zm36.1419 -23.3516l22.5351 0 0.326596 6.61355 -0.734836 0c-0.353814,-1.79628 -0.925352,-3.08905 -1.71462,-3.87832 -0.898145,-0.898134 -2.23174,-1.34721 -4.0008,-1.34721l-3.02101 0 0 21.9635c0,1.46968 0.278973,2.44946 0.836907,2.93935 0.557934,0.489894 1.58535,0.734847 3.08224,0.734847l0 0.734836 -12.084 0 0 -0.734836c1.46968,0 2.49029,-0.244953 3.06184,-0.734847 0.571538,-0.489894 0.857312,-1.46967 0.857312,-2.93935l0 -21.9635 -3.02101 0c-1.74184,0 -3.04823,0.428656 -3.91915,1.28597 -0.870915,0.857312 -1.46967,2.1705 -1.79627,3.93956l-0.734847 0 0.326596 -6.61355zm75.4272 11.1859l0.0408217 -0.734836 8.73643 0 0 0.734836c-1.00701,0 -1.89153,0.353814 -2.65359,1.06144 -0.27216,0.27216 -1.22473,1.70101 -2.85771,4.28656 -0.925352,1.38803 -1.5105,2.25895 -1.75545,2.61277 -0.734836,1.06143 -1.40164,1.93236 -2.0004,2.61276 1.11587,1.14309 2.14328,2.01401 3.08225,2.61277 0.938955,0.598756 1.80308,0.898134 2.59235,0.898134 1.11587,0 2.02761,-0.20412 2.73523,-0.612359 0.707629,-0.408251 1.29277,-1.12948 1.75545,-2.1637l0.775669 0.285763c-0.353814,1.76906 -1.14989,3.15029 -2.38823,4.14369 -1.23833,0.993392 -2.75565,1.49009 -4.55192,1.49009 -1.08865,0 -2.24535,-0.319794 -3.47008,-0.959372 -1.22473,-0.639589 -2.43586,-1.51732 -3.63337,-2.63317 -1.38804,1.08865 -2.91215,1.95957 -4.57235,2.61276 -1.66019,0.653192 -3.36121,0.979788 -5.10305,0.979788 -2.5039,0 -4.3478,-0.537518 -5.53171,-1.61256 -1.18391,-1.07505 -1.77586,-2.55153 -1.77586,-4.42945 0,-2.31338 0.870915,-4.32739 2.61276,-6.04202 1.22473,-1.19751 3.15709,-2.44947 5.79708,-3.75584 -0.544331,-1.19752 -0.993403,-2.34061 -1.34721,-3.42926 -0.353814,-1.08865 -0.530727,-1.94596 -0.530727,-2.57194 0,-1.98679 0.598767,-3.64698 1.79628,-4.98059 1.3336,-1.49689 3.14348,-2.24534 5.42965,-2.24534 1.85072,0 3.39524,0.523914 4.63357,1.57174 1.23834,1.04783 1.85752,2.45627 1.85752,4.22532 0,1.60576 -0.775669,3.0074 -2.32699,4.20492 -0.898134,0.707629 -2.59915,1.6466 -5.10305,2.81689 1.41525,2.63999 3.40203,5.348 5.96036,8.12407 1.08865,-1.27917 2.0004,-2.61277 2.73525,-4.0008 0.653181,-1.22474 0.979777,-2.10926 0.979777,-2.65359 0,-0.870927 -0.108862,-1.4969 -0.326596,-1.87792 -0.217723,-0.381033 -0.748439,-0.571549 -1.59215,-0.571549zm-11.4308 2.77607c-1.4969,0.870915 -2.66719,1.8371 -3.5109,2.89853 -0.925352,1.1703 -1.38803,2.39503 -1.38803,3.6742 0,1.57854 0.476279,2.87131 1.42885,3.87832 0.95257,1.00701 2.23174,1.5105 3.8375,1.5105 1.03422,0 2.04802,-0.231338 3.04142,-0.694014 0.993392,-0.462676 1.97998,-1.07505 2.95977,-1.8371 -1.14309,-1.25195 -2.29978,-2.76245 -3.47008,-4.53151 -0.925352,-1.41525 -1.89153,-3.04823 -2.89853,-4.89893zm3.02101 -3.06183c1.68741,-0.843709 2.91215,-1.6602 3.6742,-2.44947 0.979788,-1.00701 1.46967,-2.15008 1.46967,-3.42925 0,-1.3336 -0.312981,-2.38143 -0.938955,-3.14348 -0.625974,-0.762054 -1.41525,-1.14309 -2.36782,-1.14309 -0.979788,0 -1.81668,0.462676 -2.51071,1.38803 -0.694014,0.925363 -1.04102,1.93236 -1.04102,3.02101 0,0.843709 0.142882,1.75546 0.428656,2.73525 0.285763,0.979788 0.714419,1.98678 1.28597,3.02101zm68.6912 -1.87792l-0.775669 0c-0.244941,-2.55833 -1.01381,-4.55193 -2.30658,-5.98079 -1.29277,-1.42885 -3.05503,-2.14328 -5.28676,-2.14328 -1.46968,0 -2.66719,0.462676 -3.59255,1.38803 -0.925352,0.925363 -1.38803,1.94597 -1.38803,3.06184 0,1.57854 1.30637,3.17069 3.91914,4.77645 2.42225,1.41525 4.85811,2.81689 7.30757,4.20492 2.63999,1.87792 3.95998,3.91914 3.95998,6.12367 0,2.28616 -0.823292,4.1845 -2.46988,5.695 -1.64658,1.5105 -3.91234,2.26576 -6.79727,2.26576 -0.870927,0 -1.64658,-0.0748417 -2.32699,-0.224536 -0.68041,-0.149695 -1.28597,-0.326596 -1.81668,-0.530716 -0.530727,-0.20412 -1.01381,-0.387834 -1.44928,-0.551132 -0.435458,-0.163298 -0.857312,-0.244941 -1.26555,-0.244941 -0.353814,0 -0.639589,0.13608 -0.857312,0.40824 -0.217735,0.27216 -0.367418,0.653192 -0.449072,1.14309l-0.734836 0 0 -9.38962 0.734836 0c0,2.39503 0.88453,4.32739 2.65359,5.79708 1.63298,1.36081 3.57894,2.04122 5.8379,2.04122 1.41525,0 2.64678,-0.421854 3.69461,-1.26556 1.04783,-0.843709 1.57174,-1.94596 1.57174,-3.30678 0,-1.8507 -1.26556,-3.56533 -3.79668,-5.14387 -2.39502,-1.3336 -4.77645,-2.68081 -7.14427,-4.04162 -2.55833,-1.79628 -3.8375,-3.89194 -3.8375,-6.28697 0,-2.12286 0.768856,-3.89873 2.30658,-5.32759 1.53772,-1.42885 3.5177,-2.14328 5.93996,-2.14328 0.707629,0 1.34721,0.0680399 1.91875,0.20412 0.108862,0.0272182 0.625974,0.176913 1.55133,0.449072 0.326596,0.108862 0.78247,0.285774 1.36761,0.530716 0.585152,0.244941 1.01381,0.367418 1.28598,0.367418 0.381021,0 0.728034,-0.1701 1.04102,-0.510299 0.312993,-0.340211 0.469489,-0.687212 0.469489,-1.04103l0.734836 0 0 9.6754zm14.5458 -9.0222l21.3104 0 0.326596 6.61355 -0.734847 0c-0.353814,-1.79628 -0.925352,-3.08905 -1.71462,-3.87832 -0.898134,-0.898134 -2.23174,-1.34721 -4.0008,-1.34721l-7.02181 0 0 10.5327 6.0012 0c1.25195,0 2.23174,-0.258556 2.93937,-0.775669 0.816479,-0.598756 1.22473,-1.53772 1.22473,-2.81689l0.734836 0 0 9.38962 -0.734836 0c0,-1.55133 -0.37422,-2.674 -1.12267,-3.36801 -0.74845,-0.694014 -1.73504,-1.04103 -2.95977,-1.04103l-6.08285 0 0 11.3492c0,0.489883 0.149695,0.898134 0.449072,1.22473 0.299378,0.326596 0.694014,0.489894 1.18391,0.489894l5.79708 0c1.82349,0 3.40203,-0.625974 4.73563,-1.87792 1.17029,-1.11587 2.05482,-2.62637 2.65359,-4.53151l0.979777 0 -2.49028 7.79746 -21.4737 0 0 -0.734836c1.46968,0 2.49029,-0.244953 3.06183,-0.734847 0.571538,-0.489894 0.857312,-1.46967 0.857312,-2.93935l0 -18.9425c0,-1.46968 -0.278961,-2.44947 -0.836895,-2.93935 -0.557934,-0.489894 -1.58536,-0.734847 -3.08225,-0.734847l0 -0.734836zm39.2854 23.3516l0 -18.9425c0,-1.46968 -0.278961,-2.44947 -0.836895,-2.93935 -0.557934,-0.489894 -1.58536,-0.734847 -3.08225,-0.734847l0 -0.734836 12.6556 0c2.93937,0 5.22553,0.68041 6.85851,2.04122 1.52411,1.27917 2.28617,3.0074 2.28617,5.1847 0,1.71462 -0.557934,3.19791 -1.6738,4.44986 -1.11587,1.25195 -2.61277,2.12287 -4.49069,2.61277l5.89912 8.70921c1.03422,1.46288 2.08885,2.52431 3.15029,3.1707 0.959383,0.571538 2.0072,0.857312 3.1571,0.857312l0 0.734836 -7.91995 0 -8.77725 -13.0638 -2.98019 0 0 8.65479c0,1.46968 0.278973,2.44946 0.836907,2.93935 0.557934,0.489894 1.58535,0.734847 3.08225,0.734847l0 0.734836 -12.084 0 0 -0.734836c1.46968,0 2.49029,-0.244953 3.06183,-0.734847 0.571538,-0.489894 0.857312,-1.46967 0.857312,-2.93935zm4.24574 -21.4328l0 11.39 2.44947 0c1.93236,0 3.5177,-0.537518 4.75605,-1.61256 1.23834,-1.07505 1.85751,-2.51071 1.85751,-4.30698 0,-1.68742 -0.496696,-3.10946 -1.49009,-4.26615 -0.993392,-1.15669 -2.26576,-1.73504 -3.81708,-1.73504 -0.625974,0 -1.31999,0.0544364 -2.08205,0.163298 -0.762054,0.108862 -1.31999,0.231338 -1.6738,0.367418zm26.6298 -1.91874l11.3492 0 0 0.734836c-1.06144,0 -1.8303,0.163298 -2.30659,0.489894 -0.476279,0.326596 -0.714419,0.802887 -0.714419,1.42886 0,0.544319 0.190505,1.26555 0.571538,2.16369l7.45726 17.2687 6.87211 -16.983c0.326596,-0.789272 0.489894,-1.49689 0.489894,-2.12286 0,-1.4969 -0.95257,-2.24535 -2.85771,-2.24535l0 -0.734836 8.57313 0 0 0.734836c-0.925352,0 -1.71462,0.367418 -2.36782,1.10226 -0.653192,0.734836 -1.31999,1.93236 -2.0004,3.59255l-9.30797 22.9842 -1.06144 0 -10.5327 -24.2497c-0.544331,-1.22474 -1.12948,-2.10246 -1.75546,-2.63319 -0.625974,-0.530716 -1.42885,-0.796074 -2.40864,-0.796074l0 -0.734836zm44.2659 23.3516l0 -18.9425c0,-1.46968 -0.278973,-2.44947 -0.836907,-2.93935 -0.557934,-0.489894 -1.58535,-0.734847 -3.08224,-0.734847l0 -0.734836 12.084 0 0 0.734836c-1.46967,0 -2.49028,0.244953 -3.06183,0.734847 -0.571538,0.489883 -0.857312,1.46967 -0.857312,2.93935l0 18.9425c0,1.46968 0.278973,2.44946 0.836907,2.93935 0.557934,0.489894 1.58535,0.734847 3.08224,0.734847l0 0.734836 -12.084 0 0 -0.734836c1.46967,0 2.49028,-0.244953 3.06183,-0.734847 0.571538,-0.489894 0.857312,-1.46967 0.857312,-2.93935zm44.1843 -24.0048l0.694014 9.43044 -0.979788 0c-0.27216,-2.20452 -1.22473,-4.09605 -2.85771,-5.6746 -1.63297,-1.57854 -3.47007,-2.36782 -5.51129,-2.36782 -3.04823,0 -5.55212,1.29278 -7.5117,3.87832 -0.898134,1.19752 -1.58535,2.63317 -2.06164,4.30698 -0.476279,1.6738 -0.71443,3.4905 -0.71443,5.45006 0,3.81028 1.04783,6.85851 3.14348,9.14468 2.014,2.20452 4.59955,3.30677 7.75664,3.30677 1.6602,0 3.29318,-0.585141 4.89893,-1.75545 1.41525,-1.03422 2.69441,-2.43586 3.8375,-4.20492l0.694014 0.40824c-1.14308,2.04123 -2.59915,3.70142 -4.36821,4.98059 -2.014,1.44246 -4.1777,2.1637 -6.49108,2.1637 -4.13688,0 -7.57974,-1.37442 -10.3286,-4.12327 -2.74884,-2.74884 -4.12326,-6.11006 -4.12326,-10.0836 0,-4.08244 1.44246,-7.57973 4.32739,-10.4919 2.88492,-2.91215 6.30056,-4.36821 10.2469,-4.36821 1.60576,0 2.96658,0.190516 4.08245,0.571538 1.007,0.435469 2.02762,0.870927 3.06183,1.30638 0.299378,0 0.598756,-0.183703 0.898134,-0.551132 0.299378,-0.367418 0.503509,-0.809677 0.612371,-1.32679l0.694014 0zm13.4027 0.653192l21.3104 0 0.326596 6.61355 -0.734847 0c-0.353814,-1.79628 -0.925352,-3.08905 -1.71462,-3.87832 -0.898134,-0.898134 -2.23174,-1.34721 -4.0008,-1.34721l-7.02181 0 0 10.5327 6.0012 0c1.25195,0 2.23174,-0.258556 2.93937,-0.775669 0.816479,-0.598756 1.22473,-1.53772 1.22473,-2.81689l0.734836 0 0 9.38962 -0.734836 0c0,-1.55133 -0.37422,-2.674 -1.12267,-3.36801 -0.74845,-0.694014 -1.73504,-1.04103 -2.95977,-1.04103l-6.08285 0 0 11.3492c0,0.489883 0.149695,0.898134 0.449072,1.22473 0.299378,0.326596 0.694014,0.489894 1.18391,0.489894l5.79708 0c1.82349,0 3.40203,-0.625974 4.73563,-1.87792 1.17029,-1.11587 2.05482,-2.62637 2.65359,-4.53151l0.979777 0 -2.49028 7.79746 -21.4737 0 0 -0.734836c1.46968,0 2.49029,-0.244953 3.06183,-0.734847 0.571538,-0.489894 0.857312,-1.46967 0.857312,-2.93935l0 -18.9425c0,-1.46968 -0.278961,-2.44947 -0.836895,-2.93935 -0.557934,-0.489894 -1.58536,-0.734847 -3.08225,-0.734847l0 -0.734836zm53.5331 9.0222l-0.775669 0c-0.244941,-2.55833 -1.01381,-4.55193 -2.30658,-5.98079 -1.29277,-1.42885 -3.05503,-2.14328 -5.28676,-2.14328 -1.46968,0 -2.66719,0.462676 -3.59255,1.38803 -0.925352,0.925363 -1.38803,1.94597 -1.38803,3.06184 0,1.57854 1.30637,3.17069 3.91914,4.77645 2.42225,1.41525 4.85811,2.81689 7.30757,4.20492 2.63999,1.87792 3.95998,3.91914 3.95998,6.12367 0,2.28616 -0.823292,4.1845 -2.46988,5.695 -1.64658,1.5105 -3.91234,2.26576 -6.79727,2.26576 -0.870927,0 -1.64658,-0.0748417 -2.32699,-0.224536 -0.68041,-0.149695 -1.28597,-0.326596 -1.81668,-0.530716 -0.530727,-0.20412 -1.01381,-0.387834 -1.44928,-0.551132 -0.435458,-0.163298 -0.857312,-0.244941 -1.26555,-0.244941 -0.353814,0 -0.639589,0.13608 -0.857312,0.40824 -0.217735,0.27216 -0.367418,0.653192 -0.449072,1.14309l-0.734836 0 0 -9.38962 0.734836 0c0,2.39503 0.88453,4.32739 2.65359,5.79708 1.63298,1.36081 3.57894,2.04122 5.8379,2.04122 1.41525,0 2.64678,-0.421854 3.69461,-1.26556 1.04783,-0.843709 1.57174,-1.94596 1.57174,-3.30678 0,-1.8507 -1.26556,-3.56533 -3.79668,-5.14387 -2.39502,-1.3336 -4.77645,-2.68081 -7.14427,-4.04162 -2.55833,-1.79628 -3.8375,-3.89194 -3.8375,-6.28697 0,-2.12286 0.768856,-3.89873 2.30658,-5.32759 1.53772,-1.42885 3.5177,-2.14328 5.93996,-2.14328 0.707629,0 1.34721,0.0680399 1.91875,0.20412 0.108862,0.0272182 0.625974,0.176913 1.55133,0.449072 0.326596,0.108862 0.78247,0.285774 1.36761,0.530716 0.585152,0.244941 1.01381,0.367418 1.28598,0.367418 0.381021,0 0.728034,-0.1701 1.04102,-0.510299 0.312993,-0.340211 0.469489,-0.687212 0.469489,-1.04103l0.734836 0 0 9.6754z"/>
 </g>
</svg>
